<svg width="1055" height="999" viewBox="0 0 1055 999" fill="none" xmlns="http://www.w3.org/2000/svg">
<g opacity="0.4">
<ellipse cx="527.672" cy="499.518" rx="526.942" ry="499.482" fill="url(#paint0_linear_696_562346)"/>
<path d="M1053.77 499.518C1053.77 774.867 818.271 998.157 527.672 998.157C237.072 998.157 1.57276 774.867 1.57276 499.518C1.57276 224.169 237.072 0.878913 527.672 0.878913C818.271 0.878913 1053.77 224.169 1053.77 499.518Z" stroke="white" stroke-opacity="0.06" stroke-width="1.68556"/>
<ellipse cx="527.671" cy="499.518" rx="401.329" ry="380.415" fill="url(#paint1_linear_696_562346)"/>
<path d="M928.157 499.518C928.157 709.108 748.897 879.09 527.671 879.09C306.446 879.09 127.186 709.108 127.186 499.518C127.186 289.928 306.446 119.946 527.671 119.946C748.897 119.946 928.157 289.928 928.157 499.518Z" stroke="white" stroke-opacity="0.06" stroke-width="1.68556"/>
<ellipse cx="527.671" cy="499.518" rx="286.869" ry="271.92" fill="url(#paint2_linear_696_562346)"/>
</g>
<defs>
<linearGradient id="paint0_linear_696_562346" x1="527.672" y1="0.0361328" x2="697.655" y2="897.037" gradientUnits="userSpaceOnUse">
<stop stop-color="#667085" stop-opacity="0.12"/>
<stop offset="1" stop-color="#667085" stop-opacity="0"/>
</linearGradient>
<linearGradient id="paint1_linear_696_562346" x1="527.671" y1="119.103" x2="657.134" y2="802.276" gradientUnits="userSpaceOnUse">
<stop stop-color="#667085" stop-opacity="0.12"/>
<stop offset="1" stop-color="#667085" stop-opacity="0"/>
</linearGradient>
<linearGradient id="paint2_linear_696_562346" x1="527.671" y1="227.598" x2="620.211" y2="715.929" gradientUnits="userSpaceOnUse">
<stop stop-color="#667085" stop-opacity="0.06"/>
<stop offset="1" stop-color="#667085" stop-opacity="0"/>
</linearGradient>
</defs>
</svg>
